<svg width="512" height="512" viewBox="0 0 512 512" fill="none" xmlns="http://www.w3.org/2000/svg">
  <!-- Background -->
  <rect width="512" height="512" rx="120" fill="url(#gradient)"/>

  <!-- Resume Document Shape -->
  <path d="M146 256C146 195.248 195.248 146 256 146C316.752 146 366 195.248 366 256V341C366 368.614 343.614 391 316 391H196C168.386 391 146 368.614 146 341V256Z" stroke="white" stroke-width="28" stroke-linecap="round" stroke-linejoin="round"/>

  <!-- Resume Lines -->
  <path d="M196 341V256C196 228.386 218.386 206 246 206H266C293.614 206 316 228.386 316 256V341" stroke="white" stroke-width="28" stroke-linecap="round"/>

  <!-- Plus/Check mark -->
  <circle cx="256" cy="280" r="24" fill="white"/>
  <path d="M256 256V304M232 280H280" stroke="url(#gradient)" stroke-width="16" stroke-linecap="round"/>

  <!-- Corner Decoration -->
  <circle cx="366" cy="146" r="40" fill="rgba(255,255,255,0.2)"/>
  <circle cx="146" cy="366" r="40" fill="rgba(255,255,255,0.2)"/>

  <defs>
    <linearGradient id="gradient" x1="0" y1="0" x2="512" y2="512" gradientUnits="userSpaceOnUse">
      <stop stop-color="#6366F1"/>
      <stop offset="0.5" stop-color="#8B5CF6"/>
      <stop offset="1" stop-color="#A855F7"/>
    </linearGradient>
  </defs>
</svg>
